<?xml version="1.0" encoding="UTF-8"?>
<!DOCTYPE svg PUBLIC "-//W3C//DTD SVG 1.1//EN" "http://www.w3.org/Graphics/SVG/1.1/DTD/svg11.dtd">
<svg xmlns="http://www.w3.org/2000/svg" version="1.1" width="312px" height="426px" style="shape-rendering:geometricPrecision; text-rendering:geometricPrecision; image-rendering:optimizeQuality; fill-rule:evenodd; clip-rule:evenodd" xmlns:xlink="http://www.w3.org/1999/xlink">
<g><path style="opacity:1" fill="#fefefe" d="M -0.5,-0.5 C 103.5,-0.5 207.5,-0.5 311.5,-0.5C 311.5,141.5 311.5,283.5 311.5,425.5C 207.5,425.5 103.5,425.5 -0.5,425.5C -0.5,283.5 -0.5,141.5 -0.5,-0.5 Z"/></g>
<g><path style="opacity:1" fill="#2aa891" d="M 301.5,40.5 C 288.896,53.605 276.063,66.605 263,79.5C 260.946,82.0472 259.113,84.7139 257.5,87.5C 251.756,91.0701 246.422,95.2368 241.5,100C 205.833,136.333 170.167,172.667 134.5,209C 131.079,210.699 128.079,212.865 125.5,215.5C 128.992,193.326 119.658,183.659 97.5,186.5C 98.412,184.405 99.5787,182.405 101,180.5C 154.192,124.975 208.359,70.4746 263.5,17C 271.618,10.5735 280.618,8.90679 290.5,12C 299.172,19.5071 302.838,29.0071 301.5,40.5 Z"/></g>
<g><path style="opacity:1" fill="#4bb853" d="M 301.5,40.5 C 301.667,142.834 301.5,245.167 301,347.5C 296.174,373.334 283.008,378.834 261.5,364C 260.117,362.729 259.117,361.229 258.5,359.5C 258.667,343.83 258.5,328.163 258,312.5C 257.675,306.077 256.841,299.744 255.5,293.5C 256.941,278.21 257.775,262.877 258,247.5C 258.596,194.164 258.429,140.831 257.5,87.5C 259.113,84.7139 260.946,82.0472 263,79.5C 276.063,66.605 288.896,53.605 301.5,40.5 Z"/></g>
<g><path style="opacity:1" fill="#f5941e" d="M 52.5,136.5 C 52.44,135.957 52.1067,135.624 51.5,135.5C 50.1689,183.998 50.1689,232.332 51.5,280.5C 51.5,301.167 51.5,321.833 51.5,342.5C 37.1979,358.136 22.5313,373.47 7.5,388.5C 6.83334,337.834 6.50001,287.001 6.5,236C 6.3464,183.136 6.8464,130.303 8,77.5C 11.3599,60.8133 21.1933,54.9799 37.5,60C 40.672,61.7519 43.672,63.7519 46.5,66C 61,81.8333 76.1667,97 92,111.5C 101.312,126.554 98.4783,138.721 83.5,148C 79.1667,148.667 74.8333,148.667 70.5,148C 63.9631,144.905 57.9631,141.071 52.5,136.5 Z"/></g>
<g><path style="opacity:1" fill="#1f9580" d="M 125.5,215.5 C 120.107,228.024 110.773,232.191 97.5,228C 83.4825,219.426 80.3158,207.926 88,193.5C 90.5014,190.152 93.6681,187.818 97.5,186.5C 119.658,183.659 128.992,193.326 125.5,215.5 Z"/></g>
<g><path style="opacity:1" fill="#db2127" d="M 7.5,388.5 C 22.5313,373.47 37.1979,358.136 51.5,342.5C 54.9378,340.241 58.2711,337.741 61.5,335C 103.251,293.917 144.251,252.25 184.5,210C 189.055,206.555 194.055,203.888 199.5,202C 212.372,201.201 220.539,207.035 224,219.5C 225.445,227.498 223.445,234.498 218,240.5C 168.026,290.807 117.693,340.807 67,390.5C 59.5,398.667 52,406.833 44.5,415C 36.1002,421.083 27.1002,422.083 17.5,418C 11.7329,414.066 8.56623,408.566 8,401.5C 7.50098,397.179 7.33432,392.846 7.5,388.5 Z"/></g>
<g><path style="opacity:1" fill="#f6a23d" d="M 52.5,136.5 C 51.5012,184.33 51.1678,232.33 51.5,280.5C 50.1689,232.332 50.1689,183.998 51.5,135.5C 52.1067,135.624 52.44,135.957 52.5,136.5 Z"/></g>
<g><path style="opacity:1" fill="#319e4c" d="M 255.5,293.5 C 256.841,299.744 257.675,306.077 258,312.5C 258.5,328.163 258.667,343.83 258.5,359.5C 241.189,347.022 226.355,332.022 214,314.5C 207.438,299.973 211.271,289.473 225.5,283C 237.202,281.686 247.202,285.186 255.5,293.5 Z"/></g>
</svg>
